<mxfile host="app.diagrams.net" modified="2023-09-20T19:31:35.609Z" agent="Mozilla/5.0 (Windows NT 10.0; WOW64) AppleWebKit/537.36 (KHTML, like Gecko) Chrome/102.0.0.0 Safari/537.36" etag="LcHPnxwiv49VZ7h1BQiM" version="21.8.0" type="github">
  <diagram name="Page-1" id="2c0d36ab-eaac-3732-788b-9136903baeff">
    <mxGraphModel dx="2390" dy="1290" grid="1" gridSize="10" guides="1" tooltips="1" connect="1" arrows="1" fold="1" page="1" pageScale="1.5" pageWidth="1169" pageHeight="827" background="none" math="0" shadow="0">
      <root>
        <mxCell id="0" />
        <mxCell id="1" parent="0" />
        <mxCell id="2" value="JumpLessons Platform&#xa;(UpVision template)" style="rounded=1;fillColor=#23445D;gradientColor=none;strokeColor=none;fontColor=#FFFFFF;fontStyle=1;fontFamily=Tahoma;fontSize=17;" parent="1" vertex="1">
          <mxGeometry x="670" y="10" width="307" height="95.5" as="geometry" />
        </mxCell>
        <mxCell id="59" value="" style="edgeStyle=elbowEdgeStyle;elbow=vertical;strokeWidth=2;rounded=0;exitX=0.25;exitY=1;exitDx=0;exitDy=0;" parent="1" source="2" target="3_k1WsqG0F2tcwBnJU7O-126" edge="1">
          <mxGeometry x="347" y="225.5" width="100" height="100" as="geometry">
            <mxPoint x="813" y="275.5" as="sourcePoint" />
            <mxPoint x="480" y="350" as="targetPoint" />
            <Array as="points">
              <mxPoint x="400" y="180" />
            </Array>
          </mxGeometry>
        </mxCell>
        <mxCell id="3_k1WsqG0F2tcwBnJU7O-126" value="&lt;font style=&quot;font-size: 23px;&quot;&gt;HomePage&lt;/font&gt;" style="rounded=0;whiteSpace=wrap;html=1;fillColor=#f8cecc;strokeColor=#b85450;" vertex="1" parent="1">
          <mxGeometry x="10" y="210" width="150" height="70" as="geometry" />
        </mxCell>
        <mxCell id="3_k1WsqG0F2tcwBnJU7O-132" style="edgeStyle=orthogonalEdgeStyle;rounded=0;orthogonalLoop=1;jettySize=auto;html=1;" edge="1" parent="1" source="3_k1WsqG0F2tcwBnJU7O-130">
          <mxGeometry relative="1" as="geometry">
            <mxPoint x="40" y="680" as="targetPoint" />
          </mxGeometry>
        </mxCell>
        <mxCell id="3_k1WsqG0F2tcwBnJU7O-133" style="edgeStyle=orthogonalEdgeStyle;rounded=0;orthogonalLoop=1;jettySize=auto;html=1;" edge="1" parent="1" source="3_k1WsqG0F2tcwBnJU7O-130">
          <mxGeometry relative="1" as="geometry">
            <mxPoint x="280" y="390" as="targetPoint" />
            <Array as="points">
              <mxPoint x="280" y="500" />
            </Array>
          </mxGeometry>
        </mxCell>
        <mxCell id="3_k1WsqG0F2tcwBnJU7O-135" style="edgeStyle=orthogonalEdgeStyle;rounded=0;orthogonalLoop=1;jettySize=auto;html=1;" edge="1" parent="1" source="3_k1WsqG0F2tcwBnJU7O-130">
          <mxGeometry relative="1" as="geometry">
            <mxPoint x="320" y="500" as="targetPoint" />
          </mxGeometry>
        </mxCell>
        <mxCell id="3_k1WsqG0F2tcwBnJU7O-136" style="edgeStyle=orthogonalEdgeStyle;rounded=0;orthogonalLoop=1;jettySize=auto;html=1;" edge="1" parent="1" source="3_k1WsqG0F2tcwBnJU7O-130">
          <mxGeometry relative="1" as="geometry">
            <mxPoint x="280" y="600" as="targetPoint" />
            <Array as="points">
              <mxPoint x="280" y="500" />
            </Array>
          </mxGeometry>
        </mxCell>
        <mxCell id="3_k1WsqG0F2tcwBnJU7O-130" value="&lt;font style=&quot;font-size: 15px;&quot;&gt;1. About - Intro,History,Our Team&lt;br&gt;2. Products - New arrivals, all categories&lt;br&gt;3. Pricing - plan compare, available discounts and e.t.c&lt;br&gt;4. Blog (Additional)&lt;br&gt;5. Contact&lt;br&gt;6. F.A.Q(additional)&lt;/font&gt;" style="whiteSpace=wrap;html=1;aspect=fixed;fillColor=#dae8fc;strokeColor=#6c8ebf;align=center;" vertex="1" parent="1">
          <mxGeometry y="400" width="200" height="200" as="geometry" />
        </mxCell>
        <mxCell id="3_k1WsqG0F2tcwBnJU7O-131" style="edgeStyle=orthogonalEdgeStyle;rounded=0;orthogonalLoop=1;jettySize=auto;html=1;" edge="1" parent="1" target="3_k1WsqG0F2tcwBnJU7O-130">
          <mxGeometry relative="1" as="geometry">
            <mxPoint x="80.6" y="280" as="sourcePoint" />
            <mxPoint x="79.99999999999997" y="397" as="targetPoint" />
            <Array as="points">
              <mxPoint x="81" y="340" />
              <mxPoint x="80" y="340" />
            </Array>
          </mxGeometry>
        </mxCell>
      </root>
    </mxGraphModel>
  </diagram>
</mxfile>
